<svg width="100" height="100" viewBox="0 0 100 100" fill="none" xmlns="http://www.w3.org/2000/svg">
<path d="M45.1888 70.3915C44.4928 71.3755 43.8338 71.8605 43.2038 71.8605C42.7838 71.8605 42.5448 71.6145 42.4688 71.1265C42.4388 71.0255 42.4388 70.6425 42.4388 69.9065V57.1465H39.3008V70.8505C39.3008 72.0755 39.4048 72.9015 39.5778 73.4265C39.8908 74.3045 40.5888 74.7155 41.6008 74.7155C42.7548 74.7155 43.9408 74.0185 45.1878 72.5865V74.4775H48.3308V57.1475H45.1888V70.3915V70.3915Z" fill="black"/>
<path d="M27.8984 54.4928H31.5924V74.4777H35.0844V54.4928H38.8464V51.2188H27.8984V54.4928Z" fill="black"/>
<path d="M49.2806 39.3402C50.3036 39.3402 50.7936 38.5302 50.7936 36.9092V29.5412C50.7936 27.9222 50.3036 27.1152 49.2806 27.1152C48.2566 27.1152 47.7656 27.9222 47.7656 29.5412V36.9092C47.7666 38.5292 48.2566 39.3402 49.2806 39.3402Z" fill="black"/>
<path d="M57.4348 56.9358C56.2808 56.9358 55.2048 57.5678 54.1918 58.8158V51.2188H51.0508V74.4777H54.1918V72.7957C55.2398 74.0947 56.3188 74.7157 57.4348 74.7157C58.6858 74.7157 59.5258 74.0577 59.9458 72.7687C60.1548 72.0337 60.2618 70.8798 60.2618 69.2768V62.3758C60.2618 60.7358 60.1548 59.5897 59.9458 58.8927C59.5248 57.5937 58.6858 56.9358 57.4348 56.9358ZM57.1218 69.5228C57.1218 71.0878 56.6608 71.8598 55.7558 71.8598C55.2398 71.8598 54.7158 71.6137 54.1908 71.0887V60.5247C54.7158 60.0077 55.2388 59.7618 55.7558 59.7618C56.6618 59.7618 57.1218 60.5638 57.1218 62.1268V69.5228Z" fill="black"/>
<path d="M67.4341 56.9355C65.8321 56.9355 64.5801 57.5265 63.6741 58.7135C63.0061 59.5885 62.7031 60.9425 62.7031 62.7935V68.8655C62.7031 70.7055 63.0451 72.0745 63.7121 72.9395C64.6191 74.1225 65.8691 74.7145 67.5131 74.7145C69.1531 74.7145 70.4401 74.0935 71.3101 72.8375C71.6937 72.2734 71.9444 71.6296 72.0431 70.9545C72.0711 70.6395 72.1101 69.9415 72.1101 68.9315V68.4715H68.9051C68.9051 69.7315 68.8661 70.4285 68.8371 70.5995C68.6581 71.4385 68.2061 71.8585 67.4341 71.8585C66.3561 71.8585 65.8321 71.0585 65.8321 69.4545V66.3825H72.1111V62.7925C72.1111 60.9405 71.7961 59.5875 71.1391 58.7125C70.2601 57.5255 69.0101 56.9355 67.4341 56.9355V56.9355ZM68.9711 63.7695H65.8321V62.1665C65.8321 60.5645 66.3561 59.7625 67.4061 59.7625C68.4451 59.7625 68.9711 60.5645 68.9711 62.1665V63.7695V63.7695Z" fill="black"/>
<path d="M79 14H21C17.15 14 14 17.15 14 21V79C14 82.85 17.15 86 21 86H79C82.85 86 86 82.85 86 79V21C86 17.15 82.85 14 79 14ZM56.58 24.47H59.743V37.362C59.743 38.108 59.743 38.495 59.782 38.597C59.852 39.089 60.1 39.34 60.526 39.34C61.16 39.34 61.827 38.848 62.53 37.854V24.47H65.704V41.98H62.53V40.07C61.267 41.519 60.062 42.223 58.905 42.223C57.883 42.223 57.178 41.808 56.861 40.92C56.686 40.391 56.58 39.552 56.58 38.316V24.47V24.47ZM44.593 30.178C44.593 28.307 44.912 26.938 45.587 26.053C46.465 24.857 47.701 24.258 49.281 24.258C50.871 24.258 52.105 24.857 52.984 26.053C53.648 26.938 53.969 28.307 53.969 30.178V36.313C53.969 38.173 53.649 39.553 52.984 40.432C52.105 41.625 50.872 42.224 49.281 42.224C47.7 42.224 46.464 41.625 45.587 40.432C44.912 39.553 44.593 38.173 44.593 36.313V30.178ZM36.107 18.482L38.606 27.709L41.005 18.482H44.563L40.331 32.464V41.98H36.811V32.464C36.493 30.776 35.789 28.306 34.661 25.029C33.919 22.849 33.146 20.659 32.405 18.482H36.107ZM75.073 75.518C74.439 78.281 72.177 80.319 69.457 80.622C63.013 81.342 56.492 81.346 50 81.342C43.507 81.346 36.986 81.342 30.543 80.622C27.822 80.318 25.564 78.28 24.929 75.518C24.024 71.582 24.024 67.286 24.024 63.236C24.024 59.182 24.034 54.889 24.94 50.952C25.574 48.19 27.833 46.153 30.554 45.849C36.997 45.127 43.518 45.125 50.011 45.127C56.503 45.125 63.024 45.127 69.468 45.849C72.187 46.153 74.448 48.19 75.083 50.952C75.988 54.89 75.983 59.182 75.983 63.236C75.984 67.286 75.979 71.582 75.073 75.518V75.518Z" fill="black"/>
</svg>
